<?xml version="1.0" encoding="UTF-8" standalone="no"?>
<svg width="34px" height="34px" viewBox="0 0 34 34" version="1.1" xmlns="http://www.w3.org/2000/svg" xmlns:xlink="http://www.w3.org/1999/xlink" xmlns:sketch="http://www.bohemiancoding.com/sketch/ns">
    <!-- Generator: Sketch 3.3.3 (12081) - http://www.bohemiancoding.com/sketch -->
    <title>Facebook</title>
    <desc>Created with Sketch.</desc>
    <defs></defs>
    <g id="Page-1" stroke="none" stroke-width="1" fill="none" fill-rule="evenodd" sketch:type="MSPage">
        <g id="iPad-Landscape-Copy-2" sketch:type="MSArtboardGroup" transform="translate(-432.000000, -527.000000)">
            <g id="Facebook" sketch:type="MSLayerGroup" transform="translate(432.000000, 527.000000)">
                <path d="M17.007,34.015 C26.401,34.015 34.016,26.401 34.016,17.007 C34.016,7.615 26.401,0 17.007,0 C7.614,0 0,7.615 0,17.007 C0,26.401 7.614,34.015 17.007,34.015" id="Fill-172" fill="#7E939E" sketch:type="MSShapeGroup"></path>
                <path d="M12.502,14.198 L14.261,14.198 L14.261,12.489 C14.261,11.735 14.28,10.573 14.827,9.853 C15.404,9.091 16.195,8.573 17.557,8.573 C19.775,8.573 20.709,8.889 20.709,8.889 L20.27,11.494 C20.27,11.494 19.537,11.283 18.853,11.283 C18.169,11.283 17.557,11.528 17.557,12.211 L17.557,14.198 L20.361,14.198 L20.165,16.742 L17.557,16.742 L17.557,25.581 L14.261,25.581 L14.261,16.742 L12.502,16.742 L12.502,14.198" id="Fill-173" fill="#FFFFFF" sketch:type="MSShapeGroup"></path>
            </g>
        </g>
    </g>
</svg>