<?xml version="1.0" encoding="UTF-8" standalone="no"?>
<svg width="34px" height="34px" viewBox="0 0 34 34" version="1.1" xmlns="http://www.w3.org/2000/svg" xmlns:xlink="http://www.w3.org/1999/xlink" xmlns:sketch="http://www.bohemiancoding.com/sketch/ns">
    <!-- Generator: Sketch 3.3.3 (12081) - http://www.bohemiancoding.com/sketch -->
    <title>Instagram</title>
    <desc>Created with Sketch.</desc>
    <defs></defs>
    <g id="Page-1" stroke="none" stroke-width="1" fill="none" fill-rule="evenodd" sketch:type="MSPage">
        <g id="iPad-Landscape-Copy-2" sketch:type="MSArtboardGroup" transform="translate(-483.000000, -527.000000)">
            <g id="Instagram" sketch:type="MSLayerGroup" transform="translate(483.000000, 527.000000)">
                <path d="M17.008,34.016 C26.402,34.016 34.016,26.4 34.016,17.007 C34.016,7.615 26.402,0 17.008,0 C7.613,0 0,7.615 0,17.007 C0,26.4 7.613,34.016 17.008,34.016" id="Fill-203" fill="#7E939E" sketch:type="MSShapeGroup"></path>
                <path d="M23.619,22.318 C23.619,23.217 22.888,23.948 21.989,23.948 L11.555,23.948 C10.656,23.948 9.925,23.217 9.925,22.318 L9.925,15.355 L12.464,15.355 C12.245,15.895 12.122,16.484 12.122,17.101 C12.122,19.665 14.208,21.752 16.772,21.752 C19.336,21.752 21.422,19.665 21.422,17.101 C21.422,16.484 21.298,15.895 21.08,15.355 L23.619,15.355 L23.619,22.318 L23.619,22.318 Z M14.345,15.355 C14.889,14.601 15.773,14.107 16.772,14.107 C17.771,14.107 18.655,14.601 19.199,15.355 C19.554,15.847 19.766,16.449 19.766,17.101 C19.766,18.751 18.422,20.094 16.772,20.094 C15.122,20.094 13.779,18.751 13.779,17.101 C13.779,16.449 13.991,15.847 14.345,15.355 L14.345,15.355 Z M22.932,10.557 L23.308,10.556 L23.308,13.439 L20.434,13.448 L20.424,10.565 L22.932,10.557 L22.932,10.557 Z M21.989,8.597 L11.555,8.597 C9.743,8.597 8.268,10.071 8.268,11.884 L8.268,22.318 C8.268,24.131 9.743,25.605 11.555,25.605 L21.989,25.605 C23.801,25.605 25.276,24.131 25.276,22.318 L25.276,11.884 C25.276,10.071 23.801,8.597 21.989,8.597 L21.989,8.597 Z" id="Fill-243" fill="#FFFFFF" sketch:type="MSShapeGroup"></path>
            </g>
        </g>
    </g>
</svg>